<svg width="24" height="24" viewBox="0 0 24 24" fill="none" xmlns="http://www.w3.org/2000/svg">
<path d="M3.11402 8.17681C1.23641 9.43228 0 11.5717 0 14C0 17.866 3.134 21 7 21H13C16.0312 21 18.6124 19.0733 19.5858 16.3778C18.6866 16.778 17.6937 17 16.65 17H10.35C9.04209 17 7.81397 16.6514 6.75 16.0403V16.375C6.75 16.5408 6.68415 16.6997 6.56694 16.8169C6.44973 16.9342 6.29076 17 6.125 17C5.95924 17 5.80027 16.9342 5.68306 16.8169C5.56585 16.6997 5.5 16.5408 5.5 16.375V15.1355C5.36236 15.0121 5.22927 14.8835 5.10104 14.75H3.625C3.45924 14.75 3.30027 14.6842 3.18306 14.5669C3.06585 14.4497 3 14.2908 3 14.125C3 13.9592 3.06585 13.8003 3.18306 13.6831C3.30027 13.5658 3.45924 13.5 3.625 13.5H4.13147C3.41478 12.3423 3 10.9706 3 9.5C3 9.04851 3.0391 8.60633 3.11402 8.17681Z" fill="white"/>
<path d="M11 2C7.134 2 4 5.134 4 9C4 12.866 7.134 16 11 16H17C20.866 16 24 12.866 24 9C24 5.134 20.866 2 17 2H11ZM10.125 6C10.47 6 10.75 6.28 10.75 6.625V8.5H12.375C12.5408 8.5 12.6997 8.56585 12.8169 8.68306C12.9342 8.80027 13 8.95924 13 9.125C13 9.29076 12.9342 9.44973 12.8169 9.56694C12.6997 9.68415 12.5408 9.75 12.375 9.75H10.75V11.375C10.75 11.5408 10.6842 11.6997 10.5669 11.8169C10.4497 11.9342 10.2908 12 10.125 12C9.95924 12 9.80027 11.9342 9.68306 11.8169C9.56585 11.6997 9.5 11.5408 9.5 11.375V9.75H7.625C7.45924 9.75 7.30027 9.68415 7.18306 9.56694C7.06585 9.44973 7 9.29076 7 9.125C7 8.95924 7.06585 8.80027 7.18306 8.68306C7.30027 8.56585 7.45924 8.5 7.625 8.5H9.5V6.625C9.5 6.28 9.78 6 10.125 6ZM18 10.75C18 11.0815 17.8683 11.3995 17.6339 11.6339C17.3995 11.8683 17.0815 12 16.75 12C16.4185 12 16.1005 11.8683 15.8661 11.6339C15.6317 11.3995 15.5 11.0815 15.5 10.75C15.5 10.4185 15.6317 10.1005 15.8661 9.86612C16.1005 9.6317 16.4185 9.5 16.75 9.5C17.0815 9.5 17.3995 9.6317 17.6339 9.86612C17.8683 10.1005 18 10.4185 18 10.75ZM18.75 8.5C18.4185 8.5 18.1005 8.3683 17.8661 8.13388C17.6317 7.89946 17.5 7.58152 17.5 7.25C17.5 6.91848 17.6317 6.60054 17.8661 6.36612C18.1005 6.1317 18.4185 6 18.75 6C19.0815 6 19.3995 6.1317 19.6339 6.36612C19.8683 6.60054 20 6.91848 20 7.25C20 7.58152 19.8683 7.89946 19.6339 8.13388C19.3995 8.3683 19.0815 8.5 18.75 8.5Z" fill="white"/>
</svg>
