<svg width="53" height="54" viewBox="0 0 53 54" fill="none" xmlns="http://www.w3.org/2000/svg">
<path d="M26.471 10.4854L20.291 12.7398V27.98H21.4573V30.4475H31.6133V27.9802H32.7796L32.7795 12.7509L26.4709 10.4854L26.471 10.4854ZM16.9603 11.1291V27.98H19.0501V11.1291L16.9603 11.1291ZM34.0205 11.1291V27.98H36.1103V11.1291L34.0205 11.1291ZM23.0261 13.1595L25.0806 15.5413L26.554 13.2013L28.0294 15.5413L29.9283 13.3244L29.1521 17.8002H23.8396L23.0261 13.1595ZM14.6693 29.294V31.7043H20.2162V29.294H14.6693ZM32.8543 29.294V31.7043H38.4012V29.294H32.8543ZM21.4573 31.7615V33.0183H20.3013V34.0884L32.7691 34.0883V33.0183H31.6133V31.7616H21.4572L21.4573 31.7615ZM15.8252 33.0183V43.5982L19.0605 43.598V33.0184H15.8252V33.0183ZM34.0101 33.0183V43.5982L37.2454 43.598L37.2453 33.0183H34.0101ZM20.3014 35.4023V42.2336H32.7691V35.4023H20.3014Z" fill="#4B4B4B"/>
<path d="M26.4357 10.4854L20.2557 12.7398V27.98H21.422V30.4475H31.578V27.9802H32.7443L32.7442 12.7509L26.4357 10.4854ZM16.925 11.1291V27.98H19.0148V11.1291L16.925 11.1291ZM33.9852 11.1291V27.98H36.075V11.1291L33.9852 11.1291ZM22.9908 13.1595L25.0453 15.5413L26.5187 13.2013L27.9941 15.5413L29.893 13.3244L29.1168 17.8002H23.8043L22.9908 13.1595ZM14.634 29.294V31.7043H20.1809V29.294H14.634ZM32.819 29.294V31.7043H38.3659V29.294H32.819ZM21.422 31.7615V33.0183H20.266V34.0884L32.7338 34.0883V33.0183H31.578V31.7616L21.422 31.7615ZM15.7899 33.0183V43.5982L19.0252 43.598V33.0184L15.7899 33.0183ZM33.9749 33.0183V43.5982L37.2102 43.598L37.21 33.0183H33.9749ZM20.2661 35.4023V42.2336H32.7339V35.4023H20.2661Z" fill="#4B4B4B"/>
</svg>
