<svg width="53" height="54" viewBox="0 0 53 54" fill="none" xmlns="http://www.w3.org/2000/svg">
<path d="M10.3334 41.4166V38.1666C11.1389 38.1666 11.8267 38.0416 12.3967 37.7916C12.9667 37.5416 13.5428 37.2705 14.125 36.9783C14.7073 36.6861 15.3534 36.4222 16.0634 36.1866C16.7734 35.9511 17.6412 35.8333 18.6667 35.8333C19.7223 35.8333 20.5906 35.9516 21.2717 36.1883C21.9528 36.425 22.5845 36.6883 23.1667 36.9783C23.7489 37.2683 24.3323 37.5394 24.9167 37.7916C25.5012 38.0439 26.1956 38.1689 27 38.1666C27.8045 38.1644 28.4989 38.0394 29.0834 37.7916C29.6678 37.5439 30.2512 37.2728 30.8334 36.9783C31.4156 36.6839 32.0545 36.42 32.75 36.1866C33.4456 35.9533 34.3067 35.8355 35.3334 35.8333C36.3889 35.8333 37.2639 35.9516 37.9584 36.1883C38.6528 36.425 39.2917 36.6883 39.875 36.9783C40.4584 37.2683 41.0417 37.5394 41.625 37.7916C42.2084 38.0439 42.8889 38.1689 43.6667 38.1666V41.4166C42.6112 41.4166 41.7289 41.2916 41.02 41.0416C40.3112 40.7916 39.6656 40.5211 39.0834 40.23C38.5012 39.9389 37.9317 39.675 37.375 39.4383C36.8184 39.2016 36.1378 39.0833 35.3334 39.0833C34.5556 39.0833 33.8817 39.2016 33.3117 39.4383C32.7417 39.675 32.1723 39.9389 31.6034 40.23C31.0345 40.5211 30.3956 40.7916 29.6867 41.0416C28.9778 41.2916 28.0823 41.4166 27 41.4166C25.9178 41.4166 25.0217 41.2916 24.3117 41.0416C23.6017 40.7916 22.9628 40.5211 22.395 40.23C21.8273 39.9389 21.265 39.675 20.7084 39.4383C20.1517 39.2016 19.4712 39.0833 18.6667 39.0833C17.8889 39.0833 17.215 39.2016 16.645 39.4383C16.075 39.675 15.4989 39.9389 14.9167 40.23C14.3345 40.5211 13.6884 40.7916 12.9784 41.0416C12.2684 41.2916 11.3867 41.4166 10.3334 41.4166ZM10.3334 34V30.75C11.1389 30.75 11.8262 30.625 12.395 30.375C12.9639 30.125 13.5406 29.8544 14.125 29.5633C14.7095 29.2722 15.355 29.0083 16.0617 28.7716C16.7684 28.535 17.6367 28.4166 18.6667 28.4166C19.7223 28.4166 20.5906 28.535 21.2717 28.7716C21.9528 29.0083 22.5845 29.2722 23.1667 29.5633C23.7489 29.8544 24.3323 30.125 24.9167 30.375C25.5012 30.625 26.1956 30.75 27 30.75C27.8045 30.75 28.4989 30.625 29.0834 30.375C29.6678 30.125 30.2512 29.8544 30.8334 29.5633C31.4156 29.2722 32.0545 29.0083 32.75 28.7716C33.4456 28.535 34.3067 28.4166 35.3334 28.4166C36.3889 28.4166 37.2639 28.535 37.9584 28.7716C38.6528 29.0083 39.2917 29.2722 39.875 29.5633C40.4584 29.8544 41.0417 30.125 41.625 30.375C42.2084 30.625 42.8889 30.75 43.6667 30.75V34C42.6112 34 41.7289 33.875 41.02 33.625C40.3112 33.375 39.6656 33.1039 39.0834 32.8116C38.5012 32.5194 37.9317 32.2561 37.375 32.0216C36.8184 31.7872 36.1378 31.6689 35.3334 31.6666C34.5289 31.6644 33.8417 31.7828 33.2717 32.0216C32.7017 32.2605 32.1317 32.5244 31.5617 32.8133C30.9917 33.1022 30.36 33.3728 29.6667 33.625C28.9734 33.8772 28.0845 34.0022 27 34C25.9156 33.9978 25.02 33.8728 24.3134 33.625C23.6067 33.3772 22.9678 33.1061 22.3967 32.8116C21.8256 32.5172 21.2628 32.2539 20.7084 32.0216C20.1539 31.7894 19.4734 31.6711 18.6667 31.6666C17.8889 31.6666 17.2156 31.785 16.6467 32.0216C16.0778 32.2583 15.5012 32.5222 14.9167 32.8133C14.3323 33.1044 13.6867 33.375 12.98 33.625C12.2734 33.875 11.3912 34 10.3334 34ZM10.3334 26.5833V23.3333C11.1389 23.3333 11.8267 23.2083 12.3967 22.9583C12.9667 22.7083 13.5428 22.4372 14.125 22.145C14.7073 21.8528 15.3534 21.5889 16.0634 21.3533C16.7734 21.1178 17.6412 21 18.6667 21C19.7223 21 20.5906 21.1183 21.2717 21.355C21.9528 21.5916 22.5845 21.855 23.1667 22.145C23.7489 22.435 24.3323 22.7061 24.9167 22.9583C25.5012 23.2105 26.1956 23.3355 27 23.3333C27.8045 23.3311 28.4989 23.2061 29.0834 22.9583C29.6678 22.7105 30.2512 22.4394 30.8334 22.145C31.4156 21.8505 32.0545 21.5866 32.75 21.3533C33.4456 21.12 34.3067 21.0022 35.3334 21C36.3889 21 37.2639 21.1183 37.9584 21.355C38.6528 21.5916 39.2917 21.855 39.875 22.145C40.4584 22.435 41.0417 22.7061 41.625 22.9583C42.2084 23.2105 42.8889 23.3355 43.6667 23.3333V26.5833C42.6112 26.5833 41.7289 26.4583 41.02 26.2083C40.3112 25.9583 39.6656 25.6878 39.0834 25.3966C38.5012 25.1055 37.9317 24.8416 37.375 24.605C36.8184 24.3683 36.1378 24.25 35.3334 24.25C34.5556 24.25 33.8817 24.3683 33.3117 24.605C32.7417 24.8416 32.1723 25.1055 31.6034 25.3966C31.0345 25.6878 30.3956 25.9583 29.6867 26.2083C28.9778 26.4583 28.0823 26.5833 27 26.5833C25.9178 26.5833 25.0217 26.4583 24.3117 26.2083C23.6017 25.9583 22.9628 25.6878 22.395 25.3966C21.8273 25.1055 21.265 24.8416 20.7084 24.605C20.1517 24.3683 19.4712 24.25 18.6667 24.25C17.8889 24.25 17.215 24.3683 16.645 24.605C16.075 24.8416 15.4989 25.1055 14.9167 25.3966C14.3345 25.6878 13.6884 25.9583 12.9784 26.2083C12.2684 26.4583 11.3867 26.5833 10.3334 26.5833ZM10.3334 19.1666V15.9166C11.1389 15.9166 11.8262 15.7916 12.395 15.5416C12.9639 15.2916 13.5406 15.0211 14.125 14.73C14.7095 14.4389 15.355 14.175 16.0617 13.9383C16.7684 13.7016 17.6367 13.5833 18.6667 13.5833C19.7223 13.5833 20.5906 13.7016 21.2717 13.9383C21.9528 14.175 22.5845 14.4389 23.1667 14.73C23.7489 15.0211 24.3323 15.2916 24.9167 15.5416C25.5012 15.7916 26.1956 15.9166 27 15.9166C27.8045 15.9166 28.4989 15.7916 29.0834 15.5416C29.6678 15.2916 30.2512 15.0205 30.8334 14.7283C31.4156 14.4361 32.0545 14.1728 32.75 13.9383C33.4456 13.7039 34.3067 13.5855 35.3334 13.5833C36.3889 13.5833 37.2639 13.7016 37.9584 13.9383C38.6528 14.175 39.2917 14.4389 39.875 14.73C40.4584 15.0211 41.0417 15.2916 41.625 15.5416C42.2084 15.7916 42.8889 15.9166 43.6667 15.9166V19.1666C42.6112 19.1666 41.7289 19.0416 41.02 18.7916C40.3112 18.5416 39.6656 18.2711 39.0834 17.98C38.5012 17.6889 37.9317 17.425 37.375 17.1883C36.8184 16.9516 36.1378 16.8333 35.3334 16.8333C34.5556 16.8333 33.8817 16.9516 33.3117 17.1883C32.7417 17.425 32.1723 17.6889 31.6034 17.98C31.0345 18.2711 30.3956 18.5416 29.6867 18.7916C28.9778 19.0416 28.0823 19.1666 27 19.1666C25.9178 19.1666 25.0217 19.0416 24.3117 18.7916C23.6017 18.5416 22.9628 18.2705 22.395 17.9783C21.8273 17.6861 21.265 17.4228 20.7084 17.1883C20.1517 16.9539 19.4712 16.8355 18.6667 16.8333C17.8889 16.8333 17.215 16.9516 16.645 17.1883C16.075 17.425 15.4989 17.6889 14.9167 17.98C14.3345 18.2711 13.6884 18.5416 12.9784 18.7916C12.2684 19.0416 11.3867 19.1666 10.3334 19.1666Z" fill="#0075FF"/>
</svg>
