<svg width="24" height="24" viewBox="0 0 24 24" fill="none" xmlns="http://www.w3.org/2000/svg">
<path d="M9 5C5.134 5 2 8.134 2 12C2 15.866 5.134 19 9 19H15C18.866 19 22 15.866 22 12C22 8.134 18.866 5 15 5H9ZM8.125 9C8.47 9 8.75 9.28 8.75 9.625V11.5H10.375C10.5408 11.5 10.6997 11.5658 10.8169 11.6831C10.9342 11.8003 11 11.9592 11 12.125C11 12.2908 10.9342 12.4497 10.8169 12.5669C10.6997 12.6842 10.5408 12.75 10.375 12.75H8.75V14.375C8.75 14.5408 8.68415 14.6997 8.56694 14.8169C8.44973 14.9342 8.29076 15 8.125 15C7.95924 15 7.80027 14.9342 7.68306 14.8169C7.56585 14.6997 7.5 14.5408 7.5 14.375V12.75H5.625C5.45924 12.75 5.30027 12.6842 5.18306 12.5669C5.06585 12.4497 5 12.2908 5 12.125C5 11.9592 5.06585 11.8003 5.18306 11.6831C5.30027 11.5658 5.45924 11.5 5.625 11.5H7.5V9.625C7.5 9.28 7.78 9 8.125 9ZM16 13.75C16 14.0815 15.8683 14.3995 15.6339 14.6339C15.3995 14.8683 15.0815 15 14.75 15C14.4185 15 14.1005 14.8683 13.8661 14.6339C13.6317 14.3995 13.5 14.0815 13.5 13.75C13.5 13.4185 13.6317 13.1005 13.8661 12.8661C14.1005 12.6317 14.4185 12.5 14.75 12.5C15.0815 12.5 15.3995 12.6317 15.6339 12.8661C15.8683 13.1005 16 13.4185 16 13.75ZM16.75 11.5C16.4185 11.5 16.1005 11.3683 15.8661 11.1339C15.6317 10.8995 15.5 10.5815 15.5 10.25C15.5 9.91848 15.6317 9.60054 15.8661 9.36612C16.1005 9.1317 16.4185 9 16.75 9C17.0815 9 17.3995 9.1317 17.6339 9.36612C17.8683 9.60054 18 9.91848 18 10.25C18 10.5815 17.8683 10.8995 17.6339 11.1339C17.3995 11.3683 17.0815 11.5 16.75 11.5Z" fill="white"/>
</svg>
