<svg width="53" height="54" viewBox="0 0 53 54" fill="none" xmlns="http://www.w3.org/2000/svg">
<path fill-rule="evenodd" clip-rule="evenodd" d="M36.2984 27.2088C36.5369 26.5799 37.3596 26.4318 37.8025 26.938L39.662 29.0632C39.7488 29.1624 39.8565 29.2411 39.9774 29.2936L40.7961 29.6496C41.245 29.8448 41.4507 30.3669 41.2555 30.8158C41.0604 31.2647 40.5383 31.4703 40.0894 31.2752L38.9056 30.7605C38.7847 30.7079 38.677 30.6292 38.5902 30.53L38.4127 30.3272C37.9698 29.821 37.1472 29.9691 36.9086 30.598L36.0507 32.8597C35.8186 33.4716 35.0282 33.6331 34.5747 33.1612L33.052 31.5768C32.6339 31.1417 31.9133 31.2391 31.6257 31.7696L30.2699 34.2709C29.956 34.85 29.1439 34.9003 28.761 34.3642L27.1422 32.0978C26.7911 31.6063 26.063 31.599 25.7021 32.0834L23.9925 34.3785C23.5968 34.9098 22.7804 34.839 22.482 34.2477L21.2874 31.8807C21.0083 31.3276 20.2639 31.2209 19.8407 31.6735L18.458 33.1522C18.0054 33.6362 17.2016 33.4746 16.9713 32.8532L16.1107 30.5317C15.8799 29.9091 15.0737 29.7484 14.6218 30.235L14.3298 30.5495C14.2445 30.6413 14.1409 30.7141 14.0256 30.7632L12.8011 31.2843C12.3507 31.4759 11.8302 31.2662 11.6385 30.8158C11.4469 30.3654 11.6566 29.8449 12.107 29.6532L12.9838 29.2801C13.0991 29.231 13.2028 29.1582 13.288 29.0664L15.2827 26.9182C15.7346 26.4316 16.5408 26.5923 16.7716 27.2149L17.6361 29.547C17.8664 30.1683 18.6702 30.33 19.1229 29.8459L20.2796 28.6089C20.7027 28.1563 21.4471 28.2629 21.7263 28.8161L22.7729 30.8899C23.0713 31.4812 23.8877 31.552 24.2834 31.0207L25.7321 29.0759C26.093 28.5914 26.8211 28.5987 27.1722 29.0903L28.5546 31.0255C28.9375 31.5616 29.7495 31.5114 30.0634 30.9322L31.2232 28.7926C31.5108 28.2621 32.2313 28.1647 32.6494 28.5998L33.9111 29.9126C34.3646 30.3845 35.155 30.223 35.3871 29.6111L36.2984 27.2088Z" fill="#4B4B4B"/>
<path fill-rule="evenodd" clip-rule="evenodd" d="M31.2365 27.3939C30.898 28.2343 29.8581 28.9276 28.476 29.274L26.4318 26.5736L24.421 29.2638C23.0591 28.914 22.0361 28.2261 21.701 27.3939L18.8908 27.3939C18.6461 27.3939 18.4477 27.1955 18.4477 26.9508C18.4477 26.7061 18.6461 26.5076 18.8908 26.5076L21.611 26.5076C21.8725 25.1455 23.9476 24.0846 26.4687 24.0846C28.9899 24.0846 31.065 25.1455 31.3265 26.5076L33.8296 26.5076C34.0744 26.5076 34.2728 26.7061 34.2728 26.9508C34.2728 27.1955 34.0744 27.3939 33.8296 27.3939L31.2365 27.3939Z" fill="#4B4B4B"/>
<path fill-rule="evenodd" clip-rule="evenodd" d="M26.7442 15.3352C26.5691 15.0756 26.188 15.0727 26.009 15.3296L23.8569 18.4189C23.6962 18.6496 23.3647 18.6756 23.1699 18.473L20.5872 15.7855C20.3637 15.5529 19.9747 15.6275 19.8531 15.9263L18.2983 19.7458C18.182 20.0315 17.8176 20.1155 17.588 19.9096L15.9973 18.4835C15.7688 18.2787 15.4065 18.3607 15.2885 18.6439L13.2607 23.5106C13.2217 23.6041 13.1521 23.6815 13.0632 23.7301L10.9255 24.8998C10.7826 24.978 10.6937 25.1279 10.6937 25.2908V32.5291C10.6937 32.6008 10.711 32.6714 10.7441 32.7349L10.7939 32.8305C11.7791 34.7233 13.9895 36.1453 16.5962 37.1214C19.2427 38.1125 22.4724 38.7102 25.7439 38.8363C29.0149 38.9623 32.376 38.6186 35.2801 37.6893C38.1745 36.7631 40.7056 35.2243 42.1704 32.8928L42.2379 32.7853C42.2825 32.7143 42.3062 32.6321 42.3062 32.5482V25.3137C42.3062 25.1634 42.2304 25.0232 42.1046 24.9409L39.8266 23.4499C39.755 23.403 39.6984 23.3365 39.6636 23.2583L37.6299 18.6938C37.5136 18.4329 37.1854 18.3471 36.9564 18.5179L35.2769 19.7704C35.047 19.9418 34.7174 19.8547 34.6023 19.592L33.0069 15.9502C32.8819 15.665 32.5105 15.5926 32.2876 15.8099L29.5177 18.5097C29.3186 18.7037 28.9925 18.6701 28.8371 18.4397L26.7442 15.3352ZM25.985 18.465C26.164 18.2081 26.5452 18.211 26.7202 18.4706L28.554 21.1908C28.7094 21.4213 29.0356 21.4548 29.2346 21.2608L31.6914 18.8662C31.9143 18.6489 32.2857 18.7214 32.4106 19.0066L33.8738 22.3465C33.9889 22.6092 34.3185 22.6963 34.5484 22.5249L36.2393 21.2639C36.4683 21.0931 36.7966 21.1788 36.9128 21.4398L38.2567 24.4559C38.2915 24.5341 38.3481 24.6006 38.4197 24.6475L40.332 25.8992C40.4578 25.9815 40.5336 26.1217 40.5336 26.272V30.6431L38.1074 27.6894L35.3302 31.4623L32.3434 29.9426L29.7234 33.2963L27.575 29.9426L23.0162 32.6151L20.5533 29.9426L17.4093 32.0911L16.0993 28.8946L12.4663 30.5542V26.3415C12.4663 26.1786 12.5551 26.0287 12.698 25.9505L14.4601 24.9864C14.5489 24.9377 14.6186 24.8603 14.6575 24.7668L15.9643 21.6305C16.0824 21.3472 16.4447 21.2652 16.6732 21.4701L18.2801 22.9108C18.5097 23.1166 18.8741 23.0326 18.9904 22.747L20.466 19.1221C20.5876 18.8233 20.9765 18.7488 21.2 18.9813L23.3892 21.2592C23.584 21.4619 23.9155 21.4358 24.0762 21.2052L25.985 18.465Z" fill="#4B4B4B"/>
</svg>
